<svg xmlns="http://www.w3.org/2000/svg" xmlns:xlink="http://www.w3.org/1999/xlink" version="1.1" x="0px" y="0px" viewBox="0 0 55.766 70" style="enable-background:new 0 0 55.766 56;" xml:space="preserve"><g><g><path d="M47.187,50.307c-0.089-0.035-0.184-0.073-0.274-0.109V53c0,0.552-0.448,1-1,1s-1-0.448-1-1v-3.601    c-0.899-0.366-1.833-0.757-2.788-1.183L34.447,56h21.349C55.192,53.58,52.265,52.311,47.187,50.307z"/><path d="M27.913,52c-2.124,0-4.137-0.462-5.945-1.021L25.928,56h3.97l3.96-5.021C32.049,51.538,30.036,52,27.913,52z"/><rect x="26.913" y="44" width="2" height="2"/><path d="M4.275,16.826C9.218,12.09,17.906,9,27.913,9c9.999,0,18.682,3.087,23.626,7.808c-1.185-2.2-5.483-9.593-11.891-13.903    C36.822,1.005,33.446,0,29.885,0H25.94c-3.562,0-6.938,1.004-9.763,2.905C9.728,7.242,5.427,14.68,4.275,16.826z"/><path d="M27.998,19c-0.001,0-0.001,0-0.002,0c-1.625,0-3.096,0.613-4.225,1.727c-1.182,1.165-1.859,2.775-1.859,4.417    c0,0.551,0.448,1,1,1c0.551,0,1-0.449,1-1c0-1.11,0.46-2.201,1.263-2.992c0.752-0.743,1.726-1.151,2.741-1.151    c2.123,0.029,3.965,1.938,3.995,4.086c0.02,1.388-0.667,2.667-1.834,3.421c-1.894,1.221-3.166,3.83-3.166,6.492v2.03    c0,0.551,0.448,1,1,1c0.551,0,1-0.449,1-1V35c0-1.67,0.772-3.86,2.25-4.812c1.75-1.13,2.779-3.047,2.75-5.13    C33.867,21.819,31.158,19.045,27.998,19z"/><path d="M45.206,42.244l3.048-3.09c0.422-0.428,0.819-0.876,1.198-1.337c0.061-0.074,0.118-0.15,0.178-0.224    c2.725-3.415,4.266-7.644,4.271-11.887C53.654,17.612,41.997,11,27.914,11S2.172,17.611,1.926,25.737    c0.006,4.216,1.547,8.44,4.271,11.854c0.06,0.075,0.118,0.151,0.179,0.226c0.379,0.461,0.776,0.909,1.198,1.337l3.047,3.09l0,0    l9.541,9.673L8.957,37.71c-3.172-3.237-5.005-7.584-5.03-11.935C4.232,18.115,16.576,13,27.914,13S51.596,18.115,51.9,25.729    c-0.025,4.396-1.857,8.743-5.03,11.98L35.665,51.916L45.206,42.244L45.206,42.244z"/><path d="M45.406,36.346c2.833-2.874,4.471-6.73,4.494-10.582C49.653,19.623,38.088,15,27.913,15S6.173,19.623,5.926,25.81    c0.023,3.806,1.661,7.663,4.494,10.536c0.026,0.026,0.051,0.054,0.073,0.083l9.192,11.656l0.348,0.124    c2.35,0.84,5.014,1.792,7.879,1.792c2.866,0,5.53-0.952,7.879-1.792l0.348-0.124l9.192-11.656    C45.355,36.399,45.38,36.372,45.406,36.346z M30.913,47c0,0.552-0.448,1-1,1h-4c-0.552,0-1-0.448-1-1v-4c0-0.552,0.448-1,1-1h4    c0.552,0,1,0.448,1,1V47z M32.246,31.869c-0.723,0.466-1.333,1.9-1.333,3.131v2.03c0,1.654-1.346,3-3,3s-3-1.346-3-3V35    c0-3.314,1.64-6.599,4.081-8.173c0.584-0.377,0.928-1.018,0.918-1.713c-0.015-1.054-0.99-2.101-1.97-2.114c0,0-0.001,0-0.002,0    c-0.51,0-0.985,0.204-1.36,0.575c-0.424,0.418-0.667,0.99-0.667,1.568c0,1.654-1.346,3-3,3s-3-1.346-3-3    c0-2.173,0.895-4.302,2.455-5.84C23.874,17.818,25.845,17,27.916,17h0.111c4.213,0.059,7.825,3.736,7.885,8.03    C35.95,27.807,34.58,30.363,32.246,31.869z"/><path d="M13.701,48.216c-0.955,0.426-1.888,0.817-2.788,1.183V53c0,0.552-0.448,1-1,1s-1-0.448-1-1v-2.802    c-0.09,0.036-0.185,0.073-0.274,0.109C3.561,52.311,0.634,53.58,0.03,56h21.349L13.701,48.216z"/></g></g><text x="0" y="71" fill="#000000" font-size="5px" font-weight="bold" font-family="'Helvetica Neue', Helvetica, Arial-Unicode, Arial, Sans-serif">Created by Prettycons</text><text x="0" y="76" fill="#000000" font-size="5px" font-weight="bold" font-family="'Helvetica Neue', Helvetica, Arial-Unicode, Arial, Sans-serif">from the Noun Project</text></svg>